<svg viewBox="0 0 200 200" xmlns="http://www.w3.org/2000/svg">
  <!-- Volunteer Relays - Community Network - Unique Design -->
  <!-- Community network nodes -->
  <circle cx="100" cy="100" r="12" fill="#22C55E" opacity="0.9"/>
  <text x="100" y="105" text-anchor="middle" fill="#FFFFFF" font-size="8" font-weight="bold">HUB</text>
  
  <!-- Volunteer nodes -->
  <circle cx="60" cy="60" r="8" fill="#16A34A" opacity="0.8"/>
  <text x="60" y="65" text-anchor="middle" fill="#FFFFFF" font-size="6" font-weight="bold">V1</text>
  
  <circle cx="140" cy="60" r="8" fill="#16A34A" opacity="0.8"/>
  <text x="140" y="65" text-anchor="middle" fill="#FFFFFF" font-size="6" font-weight="bold">V2</text>
  
  <circle cx="60" cy="140" r="8" fill="#16A34A" opacity="0.8"/>
  <text x="60" y="145" text-anchor="middle" fill="#FFFFFF" font-size="6" font-weight="bold">V3</text>
  
  <circle cx="140" cy="140" r="8" fill="#16A34A" opacity="0.8"/>
  <text x="140" y="145" text-anchor="middle" fill="#FFFFFF" font-size="6" font-weight="bold">V4</text>
  
  <circle cx="100" cy="50" r="6" fill="#10B981" opacity="0.7"/>
  <text x="100" y="54" text-anchor="middle" fill="#FFFFFF" font-size="5">V5</text>
  
  <circle cx="100" cy="150" r="6" fill="#10B981" opacity="0.7"/>
  <text x="100" y="154" text-anchor="middle" fill="#FFFFFF" font-size="5">V6</text>
  
  <circle cx="50" cy="100" r="6" fill="#10B981" opacity="0.7"/>
  <text x="50" y="104" text-anchor="middle" fill="#FFFFFF" font-size="5">V7</text>
  
  <circle cx="150" cy="100" r="6" fill="#10B981" opacity="0.7"/>
  <text x="150" y="104" text-anchor="middle" fill="#FFFFFF" font-size="5">V8</text>
  
  <!-- Community connections -->
  <path d="M68,68 L100,100" stroke="#22C55E" stroke-width="2" opacity="0.7"/>
  <path d="M132,68 L100,100" stroke="#22C55E" stroke-width="2" opacity="0.7"/>
  <path d="M68,132 L100,100" stroke="#22C55E" stroke-width="2" opacity="0.7"/>
  <path d="M132,132 L100,100" stroke="#22C55E" stroke-width="2" opacity="0.7"/>
  <path d="M100,56 L100,100" stroke="#22C55E" stroke-width="1.5" opacity="0.6"/>
  <path d="M100,100 L100,144" stroke="#22C55E" stroke-width="1.5" opacity="0.6"/>
  <path d="M56,100 L100,100" stroke="#22C55E" stroke-width="1.5" opacity="0.6"/>
  <path d="M100,100 L144,100" stroke="#22C55E" stroke-width="1.5" opacity="0.6"/>
  
  <!-- Volunteer status dashboard -->
  <rect x="20" y="160" width="160" height="30" rx="4" fill="#1F2937" opacity="0.9"/>
  <text x="100" y="175" text-anchor="middle" fill="#22C55E" font-size="8" font-weight="bold">Volunteer Network Status</text>
  
  <!-- Status indicators -->
  <rect x="30" y="180" width="30" height="8" rx="2" fill="#10B981" opacity="0.8"/>
  <text x="45" y="186" text-anchor="middle" fill="#FFFFFF" font-size="5">8 Active</text>
  
  <rect x="70" y="180" width="30" height="8" rx="2" fill="#3B82F6" opacity="0.8"/>
  <text x="85" y="186" text-anchor="middle" fill="#FFFFFF" font-size="5">24/7</text>
  
  <rect x="110" y="180" width="30" height="8" rx="2" fill="#F59E0B" opacity="0.8"/>
  <text x="125" y="186" text-anchor="middle" fill="#FFFFFF" font-size="5">Community</text>
  
  <rect x="150" y="180" width="30" height="8" rx="2" fill="#8B5CF6" opacity="0.8"/>
  <text x="165" y="186" text-anchor="middle" fill="#FFFFFF" font-size="5">P2P</text>
  
  <!-- Community heart symbol -->
  <path d="M100,80 C100,75 105,70 110,70 C115,70 120,75 120,80 C120,85 115,90 110,95 C105,90 100,85 100,80 Z" fill="#22C55E" opacity="0.6"/>
  
  <!-- Network title -->
  <text x="100" y="30" text-anchor="middle" fill="#22C55E" font-size="10" font-weight="bold">Volunteer Relays</text>
  <text x="100" y="200" text-anchor="middle" fill="#6B7280" font-size="6">Community-Powered Network</text>
</svg>
