<svg viewBox="0 0 200 200" xmlns="http://www.w3.org/2000/svg">
  <!-- React Button Component - Unique Design -->
  <!-- React atom symbol -->
  <circle cx="100" cy="100" r="30" fill="none" stroke="#61DAFB" stroke-width="3" opacity="0.8"/>
  <circle cx="100" cy="100" r="20" fill="none" stroke="#61DAFB" stroke-width="2" opacity="0.6"/>
  <circle cx="100" cy="100" r="10" fill="#61DAFB" opacity="0.4"/>
  
  <!-- React orbital paths -->
  <ellipse cx="100" cy="100" rx="25" ry="8" fill="none" stroke="#61DAFB" stroke-width="2" opacity="0.5" transform="rotate(30 100 100)"/>
  <ellipse cx="100" cy="100" rx="25" ry="8" fill="none" stroke="#61DAFB" stroke-width="2" opacity="0.5" transform="rotate(150 100 100)"/>
  <ellipse cx="100" cy="100" rx="25" ry="8" fill="none" stroke="#61DAFB" stroke-width="2" opacity="0.5" transform="rotate(270 100 100)"/>
  
  <!-- Button components -->
  <!-- Primary button -->
  <rect x="60" y="60" width="80" height="30" rx="6" fill="#3B82F6"/>
  <text x="100" y="78" text-anchor="middle" fill="#FFFFFF" font-size="10" font-weight="bold">Button</text>
  
  <!-- Secondary button -->
  <rect x="60" y="110" width="80" height="30" rx="6" fill="#6B7280" opacity="0.8"/>
  <text x="100" y="128" text-anchor="middle" fill="#FFFFFF" font-size="10" font-weight="bold">Button</text>
  
  <!-- Button variants -->
  <rect x="20" y="40" width="30" height="20" rx="4" fill="#10B981" opacity="0.7"/>
  <rect x="150" y="40" width="30" height="20" rx="4" fill="#EF4444" opacity="0.7"/>
  <rect x="20" y="140" width="30" height="20" rx="4" fill="#8B5CF6" opacity="0.7"/>
  <rect x="150" y="140" width="30" height="20" rx="4" fill="#F59E0B" opacity="0.7"/>
  
  <!-- Component props/attributes -->
  <text x="100" y="30" text-anchor="middle" fill="#3B82F6" font-size="8" font-weight="bold">React Button</text>
  <text x="100" y="170" text-anchor="middle" fill="#6B7280" font-size="6">Props: variant, size, onClick</text>
</svg>