<svg viewBox="0 0 200 200" xmlns="http://www.w3.org/2000/svg">
  <!-- Tunnel - Network Tunneling - Unique Design -->
  <!-- Tunnel structure -->
  <rect x="40" y="40" width="120" height="120" rx="8" fill="#8A3FFC" opacity="0.9"/>
  <rect x="45" y="45" width="110" height="110" rx="4" fill="#FFFFFF" opacity="0.95"/>
  
  <!-- Tunnel entrance -->
  <rect x="50" y="50" width="100" height="20" rx="3" fill="#6D28D9" opacity="0.8"/>
  <text x="100" y="63" text-anchor="middle" fill="#FFFFFF" font-size="8" font-weight="bold">Tunnel Gateway</text>
  
  <!-- Network flow -->
  <rect x="60" y="80" width="80" height="8" rx="4" fill="#8A3FFC" opacity="0.7"/>
  <rect x="60" y="95" width="80" height="8" rx="4" fill="#8A3FFC" opacity="0.5"/>
  <rect x="60" y="110" width="80" height="8" rx="4" fill="#8A3FFC" opacity="0.3"/>
  <rect x="60" y="125" width="80" height="8" rx="4" fill="#8A3FFC" opacity="0.2"/>
  
  <!-- Data packets -->
  <circle cx="70" cy="84" r="3" fill="#FFFFFF" opacity="0.8"/>
  <circle cx="90" cy="99" r="3" fill="#FFFFFF" opacity="0.6"/>
  <circle cx="110" cy="114" r="3" fill="#FFFFFF" opacity="0.4"/>
  <circle cx="130" cy="129" r="3" fill="#FFFFFF" opacity="0.2"/>
  
  <!-- Tunnel endpoints -->
  <rect x="20" y="20" width="30" height="30" rx="4" fill="#8A3FFC" opacity="0.8"/>
  <text x="35" y="37" text-anchor="middle" fill="#FFFFFF" font-size="6" font-weight="bold">A</text>
  
  <rect x="150" y="20" width="30" height="30" rx="4" fill="#8A3FFC" opacity="0.8"/>
  <text x="165" y="37" text-anchor="middle" fill="#FFFFFF" font-size="6" font-weight="bold">B</text>
  
  <rect x="20" y="150" width="30" height="30" rx="4" fill="#8A3FFC" opacity="0.8"/>
  <text x="35" y="167" text-anchor="middle" fill="#FFFFFF" font-size="6" font-weight="bold">C</text>
  
  <rect x="150" y="150" width="30" height="30" rx="4" fill="#8A3FFC" opacity="0.8"/>
  <text x="165" y="167" text-anchor="middle" fill="#FFFFFF" font-size="6" font-weight="bold">D</text>
  
  <!-- Tunnel connections -->
  <path d="M50,35 L100,50" stroke="#8A3FFC" stroke-width="3" opacity="0.7"/>
  <path d="M150,35 L100,50" stroke="#8A3FFC" stroke-width="3" opacity="0.7"/>
  <path d="M50,165 L100,150" stroke="#8A3FFC" stroke-width="3" opacity="0.7"/>
  <path d="M150,165 L100,150" stroke="#8A3FFC" stroke-width="3" opacity="0.7"/>
  
  <!-- Tunnel status -->
  <rect x="20" y="160" width="160" height="30" rx="4" fill="#1F2937" opacity="0.9"/>
  <text x="100" y="175" text-anchor="middle" fill="#8A3FFC" font-size="8" font-weight="bold">Tunnel Network Status</text>
  
  <!-- Status indicators -->
  <rect x="30" y="180" width="30" height="8" rx="2" fill="#10B981" opacity="0.8"/>
  <text x="45" y="186" text-anchor="middle" fill="#FFFFFF" font-size="5">Active</text>
  
  <rect x="70" y="180" width="30" height="8" rx="2" fill="#3B82F6" opacity="0.8"/>
  <text x="85" y="186" text-anchor="middle" fill="#FFFFFF" font-size="5">Secure</text>
  
  <rect x="110" y="180" width="30" height="8" rx="2" fill="#F59E0B" opacity="0.8"/>
  <text x="125" y="186" text-anchor="middle" fill="#FFFFFF" font-size="5">Fast</text>
  
  <rect x="150" y="180" width="30" height="8" rx="2" fill="#8B5CF6" opacity="0.8"/>
  <text x="165" y="186" text-anchor="middle" fill="#FFFFFF" font-size="5">P2P</text>
  
  <!-- Tunnel title -->
  <text x="100" y="30" text-anchor="middle" fill="#8A3FFC" font-size="10" font-weight="bold">Tunnel</text>
  <text x="100" y="200" text-anchor="middle" fill="#6B7280" font-size="6">Secure Network Tunneling</text>
</svg>
